<svg width="179" height="48" fill="none" xmlns="http://www.w3.org/2000/svg"><path d="M22.061 28.149v5.782c0 2.89-1.289 3.933-3.337 3.933s-3.336-1.042-3.336-3.933V12.073c0-2.891 1.289-3.99 3.337-3.99s3.336 1.099 3.336 3.99v4.337h6.087v-3.933C28.148 6.001 24.87 2.3 18.55 2.3c-6.322 0-9.6 3.7-9.6 10.177v21.049c0 6.476 3.278 10.178 9.6 10.178 6.321 0 9.6-3.702 9.6-10.178v-5.377H22.06Zm24.29-25.386 6.556 40.478H46.41l-1.112-7.344h-7.901l-1.113 7.344h-5.911l6.555-40.478h9.424Zm-5.091 7.17-3.044 20.471h6.204L41.377 9.932h-.116l-.001.001Zm34.65 33.308h-6.556c-.35-1.041-.585-1.678-.585-4.973v-6.36c0-3.76-1.288-5.147-4.214-5.147H62.33v16.48h-6.438V2.763h9.717c6.672 0 9.54 3.065 9.54 9.31v3.18c0 4.164-1.347 6.824-4.215 8.154 3.22 1.445 4.273 4.452 4.273 8.674v6.245c0 1.966.06 3.411.703 4.915ZM65.433 8.545H62.33v12.434h2.517c2.4 0 3.863-1.04 3.863-4.28v-3.99c0-2.89-.994-4.164-3.277-4.164Zm30.099-5.782 6.556 40.478h-6.497l-1.112-7.344h-7.902l-1.111 7.344h-5.913L86.11 2.763h9.423Zm-5.092 7.17-3.044 20.471h6.205L90.558 9.932h-.118v.001Zm17.604-7.17h-6.497l6.321 40.478h9.599l6.321-40.478h-5.911l-4.859 33.017h-.117l-4.857-33.017Zm31.182 0 6.555 40.478h-6.497l-1.111-7.344h-7.902l-1.113 7.344h-5.911l6.556-40.478h9.423Zm-5.092 7.17-3.044 20.471h6.205l-3.044-20.472h-.117v.001Zm29.302 33.308h6.614V2.763h-5.736v24.228h-.118l-6.497-24.228h-8.077v40.478h5.795V13.922h.117l7.902 29.32Z" fill="#9C9C9C"/></svg>