<svg width="177" height="46" fill="none" xmlns="http://www.w3.org/2000/svg"><g clip-path="url(#a)" fill="#9C9C9C"><path fill-rule="evenodd" clip-rule="evenodd" d="M27.334 19.942h3.137c3.242 0 4.993 3.799 2.881 6.26l-3.07 3.577a8.528 8.528 0 0 0 3.139 5.371 8.559 8.559 0 0 0 11.57-.888 8.523 8.523 0 0 0 2.28-5.79 2.84 2.84 0 0 1 2.847-2.842 2.85 2.85 0 0 1 2.849 2.843 14.198 14.198 0 0 1-7.694 12.619A14.265 14.265 0 0 1 27.333 37a14.255 14.255 0 0 1-11.527 5.681 14.265 14.265 0 0 1-11.418-5.898 14.197 14.197 0 0 1-2.689-8.311 2.839 2.839 0 0 1 2.848-2.843 2.85 2.85 0 0 1 2.849 2.843 8.52 8.52 0 0 0 2.27 5.803 8.55 8.55 0 0 0 14.721-4.498L21.313 26.2c-2.11-2.46-.36-6.258 2.887-6.258h3.134Z"/><path d="M40.624 12.362a5.695 5.695 0 0 0 5.263-3.51 5.685 5.685 0 0 0 0-4.354A5.688 5.688 0 0 0 40.624.99a5.696 5.696 0 0 0-5.261 3.51 5.685 5.685 0 0 0 0 4.353 5.686 5.686 0 0 0 5.261 3.51Zm-26.582 0a5.697 5.697 0 0 0 5.261-3.51 5.685 5.685 0 0 0 0-4.354A5.688 5.688 0 0 0 14.042.99 5.696 5.696 0 0 0 8.779 4.5a5.685 5.685 0 0 0 0 4.354 5.688 5.688 0 0 0 5.263 3.509Zm78.436-9.984c.877 0 1.598.25 2.161.752.564.5.845 1.158.845 1.973v28.079c0 .845-.265 1.518-.799 2.019-.53.5-1.236.751-2.113.751s-1.582-.25-2.115-.75c-.532-.502-.799-1.175-.799-2.02v-1.174c-.69 1.283-1.691 2.285-3.008 3.005-1.284.72-2.756 1.08-4.416 1.08-1.974 0-3.743-.501-5.309-1.503-1.536-1.001-2.741-2.41-3.618-4.226-.847-1.846-1.27-3.959-1.27-6.338 0-2.38.423-4.461 1.27-6.246.877-1.784 2.082-3.162 3.618-4.132 1.535-.97 3.305-1.456 5.309-1.456 1.66 0 3.132.345 4.418 1.034a7.168 7.168 0 0 1 2.959 2.91V5.009c0-.782.25-1.409.751-1.878.534-.501 1.238-.752 2.116-.752Zm-8.693 29.16c1.88 0 3.32-.641 4.322-1.925 1.034-1.283 1.551-3.116 1.551-5.494 0-2.379-.517-4.195-1.55-5.446-1.003-1.284-2.428-1.927-4.276-1.927-1.88 0-3.337.627-4.37 1.88-1.034 1.252-1.55 3.052-1.55 5.4 0 2.379.516 4.225 1.55 5.54 1.033 1.316 2.474 1.973 4.323 1.973Zm28.219 4.555c-2.348 0-4.416-.485-6.201-1.455-1.755-.97-3.118-2.363-4.089-4.18-.971-1.816-1.457-3.928-1.457-6.339 0-2.41.485-4.508 1.457-6.292.971-1.816 2.334-3.209 4.088-4.179 1.786-.97 3.854-1.456 6.202-1.456 2.35 0 4.402.485 6.155 1.456a9.749 9.749 0 0 1 4.089 4.18c.971 1.783 1.457 3.88 1.457 6.291 0 2.412-.486 4.523-1.457 6.34a9.749 9.749 0 0 1-4.089 4.179c-1.753.969-3.806 1.455-6.155 1.455Zm-.046-4.555c1.911 0 3.367-.626 4.369-1.878 1.003-1.252 1.505-3.1 1.505-5.54 0-2.411-.502-4.242-1.505-5.494-1.002-1.284-2.443-1.926-4.323-1.926-1.878 0-3.337.642-4.369 1.926-1.002 1.252-1.504 3.083-1.504 5.493 0 2.442.501 4.29 1.504 5.541 1.002 1.252 2.443 1.878 4.323 1.878Zm36.048-19.251c.878 0 1.582.25 2.114.75.534.502.799 1.174.799 2.019v18.548c0 3.6-1.002 6.323-3.006 8.171-2.006 1.847-4.965 2.77-8.882 2.77-3.414 0-6.265-.64-8.551-1.925-1.159-.689-1.739-1.518-1.739-2.489 0-.689.157-1.236.47-1.643a1.647 1.647 0 0 1 1.315-.611c.283 0 .627.063 1.035.189.406.156.83.329 1.268.516.981.417 1.985.777 3.007 1.08.909.25 1.943.376 3.102.376 4.103 0 6.155-2.003 6.155-6.012v-3.004c-.689 1.284-1.692 2.284-3.007 3.005-1.316.69-2.819 1.033-4.511 1.033-2.005 0-3.79-.47-5.357-1.408-1.535-.971-2.74-2.317-3.617-4.038-.878-1.723-1.317-3.71-1.317-5.964 0-2.254.424-4.242 1.269-5.963.878-1.754 2.099-3.1 3.665-4.039 1.567-.97 3.352-1.456 5.357-1.456 1.692 0 3.195.36 4.511 1.08a7.034 7.034 0 0 1 3.007 2.958v-1.22c0-.814.267-1.471.799-1.973.532-.5 1.238-.75 2.114-.75Zm-8.88 18.219c1.88 0 3.336-.612 4.369-1.831 1.066-1.222 1.598-2.896 1.598-5.025 0-2.16-.532-3.85-1.598-5.072-1.033-1.22-2.489-1.83-4.369-1.83-1.849 0-3.306.61-4.37 1.83-1.065 1.221-1.598 2.912-1.598 5.072 0 2.129.533 3.803 1.598 5.025 1.064 1.22 2.521 1.83 4.37 1.83Zm26.193 5.587c-3.414 0-6.17-.673-8.269-2.02-1.002-.594-1.503-1.44-1.503-2.535 0-.626.172-1.127.516-1.502.345-.407.768-.611 1.269-.611.532 0 1.269.251 2.209.752 1.002.47 1.91.83 2.724 1.08.847.25 1.911.375 3.195.375 1.316 0 2.335-.22 3.055-.658.752-.438 1.127-1.047 1.127-1.83 0-.532-.156-.955-.47-1.268-.281-.314-.814-.595-1.597-.846-.752-.281-1.91-.594-3.477-.939-2.787-.563-4.793-1.361-6.015-2.394-1.19-1.033-1.785-2.458-1.785-4.273 0-1.377.407-2.614 1.222-3.71.814-1.127 1.926-1.987 3.336-2.583 1.441-.625 3.07-.939 4.886-.939 1.316 0 2.585.173 3.807.517 1.165.289 2.276.764 3.289 1.408 1.002.626 1.503 1.456 1.503 2.49 0 .625-.172 1.158-.517 1.595-.344.408-.768.612-1.269.612a3.02 3.02 0 0 1-1.033-.188c-.412-.21-.82-.43-1.222-.658-.908-.47-1.691-.813-2.349-1.033-.658-.25-1.472-.376-2.443-.376-1.16 0-2.083.236-2.773.704-.658.47-.987 1.112-.987 1.926 0 .782.345 1.378 1.035 1.784.689.407 2.02.814 3.993 1.222 2.1.438 3.744.938 4.934 1.502 1.19.563 2.036 1.268 2.537 2.113.533.845.799 1.925.799 3.24 0 2.128-.893 3.835-2.678 5.118-1.755 1.283-4.104 1.925-7.049 1.925Z"/></g><defs><clipPath id="a"><path fill="#fff" transform="translate(.75 .5)" d="M0 0h175.5v45H0z"/></clipPath></defs></svg>