<svg width="219" height="48" fill="none" xmlns="http://www.w3.org/2000/svg"><path d="M14.141 36.57c-.976 0-1.766-.287-2.372-.86-.572-.573-.858-1.321-.858-2.244V5.533c0-.923.27-1.639.808-2.148.572-.51 1.346-.764 2.322-.764h17.717c2.052 0 3.079.827 3.079 2.483 0 1.623-1.027 2.435-3.08 2.435H17.322v9.167h13.427c2.053 0 3.08.828 3.08 2.483 0 1.624-1.027 2.435-3.08 2.435H17.321v11.842c0 .923-.286 1.67-.858 2.244-.572.573-1.346.86-2.322.86Zm29.956 0c-.909 0-1.666-.24-2.272-.717-.572-.51-.858-1.226-.858-2.149V5.2c0-.923.287-1.623.858-2.1.606-.478 1.363-.717 2.272-.717.909 0 1.666.239 2.271.716.606.478.909 1.178.909 2.101v28.505c0 .923-.303 1.64-.909 2.149-.605.477-1.362.716-2.271.716Zm29.221-6.685c.572 0 1.027.206 1.363.62.37.414.555.971.555 1.671 0 .987-.622 1.815-1.867 2.483-1.144.605-2.44 1.099-3.887 1.48-1.447.35-2.827.526-4.14.526-3.97 0-7.116-1.083-9.438-3.247-2.322-2.165-3.483-5.125-3.483-8.881 0-2.387.505-4.504 1.514-6.35 1.01-1.847 2.423-3.28 4.24-4.298 1.851-1.018 3.937-1.528 6.26-1.528 2.22 0 4.155.462 5.804 1.385 1.65.923 2.928 2.228 3.836 3.915.909 1.687 1.363 3.677 1.363 5.969 0 1.368-.64 2.053-1.918 2.053H58.63c.201 2.196.858 3.82 1.968 4.87 1.11 1.019 2.726 1.528 4.846 1.528 1.077 0 2.019-.127 2.827-.382a27.793 27.793 0 0 0 2.826-1.05c1.01-.51 1.75-.764 2.221-.764Zm-8.733-13.322c-1.717 0-3.096.51-4.14 1.528-1.01 1.019-1.615 2.483-1.817 4.393h11.408c-.067-1.942-.572-3.406-1.514-4.393-.943-1.019-2.255-1.528-3.937-1.528Zm36.923 15.327c.606.573.909 1.225.909 1.958 0 .7-.286 1.337-.858 1.91a2.842 2.842 0 0 1-2.02.811c-.84 0-1.564-.334-2.17-1.003l-7.117-7.448-7.117 7.448c-.64.637-1.363.956-2.17.956-.741 0-1.397-.271-1.97-.812-.571-.541-.857-1.162-.857-1.862 0-.733.302-1.385.908-1.958l7.37-7.592-6.966-7.162c-.606-.573-.909-1.225-.909-1.958 0-.732.287-1.353.859-1.862.572-.54 1.228-.812 1.968-.812.808 0 1.531.319 2.17.956l6.714 6.97 6.714-6.97c.639-.637 1.362-.956 2.17-.956.774 0 1.43.271 1.969.812.572.51.858 1.13.858 1.862 0 .732-.303 1.385-.909 1.958l-6.966 7.162 7.42 7.592Zm27.926-12.987c2.053.54 3.634 1.528 4.745 2.96 1.144 1.432 1.716 3.183 1.716 5.252 0 2.865-1.094 5.11-3.281 6.733-2.154 1.623-5.132 2.435-8.934 2.435h-13.023c-.976 0-1.75-.255-2.322-.764-.539-.51-.808-1.226-.808-2.149V5.533c0-.923.269-1.639.808-2.148.572-.51 1.346-.764 2.322-.764h12.517c3.701 0 6.595.78 8.682 2.34 2.12 1.527 3.18 3.676 3.18 6.445 0 1.783-.505 3.327-1.515 4.632-.975 1.305-2.338 2.26-4.088 2.865h.001Zm-15.547-2.101h8.228c4.476 0 6.713-1.576 6.713-4.727 0-1.592-.555-2.77-1.665-3.534-1.111-.763-2.793-1.145-5.048-1.145h-8.228v9.406Zm9.086 14.706c2.356 0 4.072-.398 5.149-1.194 1.077-.796 1.615-2.037 1.615-3.724 0-1.687-.555-2.944-1.666-3.772-1.077-.828-2.776-1.242-5.098-1.242h-9.086v9.932h9.086Zm21.585 5.061c-.909 0-1.666-.239-2.272-.716-.572-.51-.858-1.226-.858-2.149V5.2c0-.923.286-1.623.858-2.1.606-.478 1.363-.717 2.272-.717.908 0 1.666.239 2.271.716.606.478.909 1.178.909 2.101v28.505c0 .923-.303 1.64-.909 2.149-.605.477-1.363.716-2.271.716Zm20.943.096c-2.524 0-4.745-.494-6.663-1.48a10.577 10.577 0 0 1-4.391-4.25c-1.044-1.846-1.565-3.995-1.565-6.446 0-2.45.521-4.584 1.565-6.398a10.576 10.576 0 0 1 4.391-4.25c1.918-.986 4.139-1.48 6.663-1.48s4.728.494 6.612 1.48c1.889.959 3.422 2.442 4.392 4.25 1.043 1.814 1.565 3.947 1.565 6.398 0 2.451-.522 4.6-1.565 6.446-.97 1.808-2.503 3.291-4.392 4.25-1.884.986-4.088 1.48-6.612 1.48Zm-.05-4.632c2.052 0 3.617-.636 4.694-1.91 1.077-1.273 1.615-3.151 1.615-5.634 0-2.45-.538-4.313-1.615-5.586-1.077-1.305-2.625-1.958-4.644-1.958s-3.584.653-4.694 1.958c-1.077 1.273-1.616 3.135-1.616 5.586 0 2.483.539 4.361 1.616 5.634 1.076 1.274 2.624 1.91 4.644 1.91Zm38.725-19.576c.942 0 1.699.254 2.271.764.572.509.858 1.193.858 2.053v18.86c0 3.66-1.076 6.43-3.23 8.308-2.154 1.878-5.334 2.817-9.54 2.817-3.668 0-6.73-.652-9.187-1.957-1.245-.7-1.868-1.544-1.868-2.531 0-.7.169-1.257.505-1.671.37-.414.841-.62 1.413-.62.303 0 .673.063 1.111.19.437.16.892.334 1.363.525 1.211.478 2.288.844 3.23 1.099.976.254 2.087.382 3.332.382 4.408 0 6.612-2.038 6.612-6.112v-3.056c-.74 1.305-1.817 2.324-3.23 3.056-1.414.7-3.029 1.05-4.846 1.05-2.154 0-4.072-.477-5.754-1.432-1.649-.987-2.945-2.356-3.887-4.106-.942-1.751-1.413-3.773-1.413-6.064 0-2.292.454-4.314 1.362-6.064.943-1.783 2.255-3.152 3.938-4.107 1.682-.986 3.6-1.48 5.754-1.48 1.817 0 3.432.366 4.846 1.098a7.373 7.373 0 0 1 3.23 3.009v-1.242c0-.828.286-1.496.858-2.005.572-.51 1.33-.764 2.272-.764Zm-9.54 18.526c2.019 0 3.584-.621 4.694-1.862 1.144-1.242 1.716-2.945 1.716-5.11 0-2.196-.572-3.915-1.716-5.156-1.11-1.242-2.675-1.862-4.694-1.862-1.986 0-3.55.62-4.695 1.862-1.144 1.241-1.716 2.96-1.716 5.157 0 2.164.572 3.867 1.716 5.109 1.145 1.241 2.709 1.862 4.695 1.862Z" fill="#9C9C9C"/></svg>