<svg width="178" height="64" fill="none" xmlns="http://www.w3.org/2000/svg"><path d="m37.611 15.623-5.303 32.6h-7.62l1.935-11.772h-8.208l-1.897 11.771H8.9l5.346-32.599h7.578l-2.273 13.764h8.209l2.275-13.764h7.576Zm15.63 32.6.253-7.108h-7.03L44.4 48.222H36.36l10.82-32.599h13.89l.17 32.6h-8Zm-1.726-24.676-3.325 11.5h5.515l.462-11.5h-2.652Zm42.421-7.924-5.305 32.6h-7.62l-5.303-17.838-2.863 17.839h-7.622l5.347-32.6h7.83l5.221 16.662 2.735-16.663h7.58Zm17.778 0c3.676 0 6.301.997 7.871 2.988 1.152 1.51 1.726 3.396 1.726 5.66a16.9 16.9 0 0 1-.209 2.58L119.46 36.95c-.561 3.41-1.938 6.142-4.126 8.195-2.19 2.053-5.024 3.078-8.506 3.078h-12.25l5.348-32.599h11.788Zm-2.653 7.064h-2.736l-2.989 18.471h3.999c1.319 0 2.343-.377 3.073-1.13.758-.787 1.277-2.054 1.556-3.804l1.223-7.425c.106-.6.162-1.205.168-1.813 0-2.868-1.43-4.299-4.294-4.299Zm34.813 25.535H122.74l5.349-32.599h21.133l-1.179 7.064h-13.556l-.968 6.113h11.198l-1.178 7.061H132.34l-.841 5.299h13.556l-1.181 7.062Zm24.047 0h-19.198l5.348-32.599h7.578l-4.168 25.537H169.1l-1.179 7.062Zm-74.344 5.802h73.234l-2.288 6.776H91.289l2.287-6.776ZM16.91 3.2h80.1L94.72 9.976h-80.1L16.91 3.2Z" fill="#9C9C9C"/></svg>