<svg width="279" height="53" fill="none" xmlns="http://www.w3.org/2000/svg"><g clip-path="url(#a)"><mask id="b" style="mask-type:luminance" maskUnits="userSpaceOnUse" x="0" y="0" width="279" height="53"><path d="M0 0h279v53H0V0Z" fill="#fff"/></mask><g mask="url(#b)"><path fill-rule="evenodd" clip-rule="evenodd" d="M52.634 40.855a.867.867 0 0 1-.37-.086.835.835 0 0 1-.292-.234c-.22-.283-.369-.61-.434-.958-.105-.442-.185-.89-.242-1.34-.066-.58-.1-1.164-.102-1.747-.02-1.283-.015-2.566.014-3.848.017-.787.025-1.402.025-1.845v-14.66c0-.723.005-1.272.013-1.649.009-.377.039-.803.088-1.279.029-.353.093-.703.192-1.045.097-.263.225-.515.382-.75a1.59 1.59 0 0 1 .611-.59 9.36 9.36 0 0 1 .917-.382 6.289 6.289 0 0 1 1.246-.307 37.936 37.936 0 0 1 1.67-.197V8.584l-.435-.42H40.54l-.408.42v1.155c2.58.148 4.024.854 4.329 2.116.177 1.066.262 2.143.255 3.222v22.456a21.738 21.738 0 0 1-.154 3.493 1.6 1.6 0 0 1-.305.491 9.36 9.36 0 0 1-.623.652c-.173.161-.339.33-.496.504v.861c13.122 0 21.244.082 24.366.247l1.096-3.567-.688-.468c-5.07.615-10.17.985-15.277 1.108h-.001Zm24.391-10.281a.721.721 0 0 1-.152.024c-.254 0-.382-.09-.382-.27.001-.815.065-1.63.192-2.436.142-.878.381-1.74.712-2.57.32-.84.757-1.635 1.301-2.36a6.068 6.068 0 0 1 2.186-1.744 6.305 6.305 0 0 1 2.767-.606c.692-.037 1.382.1 2.002.398.62.298 1.15.746 1.536 1.3a6.578 6.578 0 0 1 1.198 3.886c-.004.253-.087.5-.24.706a1.289 1.289 0 0 1-.614.45 42.663 42.663 0 0 1-4.265 1.402 294.646 294.646 0 0 0-6.084 1.797.738.738 0 0 0-.157.023Zm15.124 7.674c-3.056 1.787-5.696 2.68-7.917 2.68a7.437 7.437 0 0 1-4.227-1.205 7.374 7.374 0 0 1-2.66-3.013 9.015 9.015 0 0 1-.854-3.898c11.102-3.328 16.703-4.993 16.805-4.993.44-.087.835-.323 1.11-.666.276-.343.414-.77.391-1.203a6.81 6.81 0 0 0-.852-3.468 6.104 6.104 0 0 0-2.305-2.3 11.408 11.408 0 0 0-3.144-1.205c-1.2-.262-2.426-.39-3.656-.382a15.917 15.917 0 0 0-6.414 1.243 12.269 12.269 0 0 0-4.595 3.32 14.943 14.943 0 0 0-2.661 4.674 16.16 16.16 0 0 0-.918 5.423c0 3.788 1.063 6.625 3.184 8.511 1.918 1.722 4.626 2.582 8.122 2.582a13.509 13.509 0 0 0 5.767-1.352 44.881 44.881 0 0 0 6.174-3.593l-.557-.957-.793-.198Zm34.294-25.935c-.682-1.717-2.022-3.117-3.743-3.911a16.334 16.334 0 0 0-6.747-1.18 20.525 20.525 0 0 0-5.003.59c-1.521.373-2.972.97-4.303 1.771a8.654 8.654 0 0 0-3.094 3.211 9.307 9.307 0 0 0-1.146 4.66 6.936 6.936 0 0 0 .853 3.332 9.33 9.33 0 0 0 2.139 2.695 25.882 25.882 0 0 0 3.003 2.201 35.249 35.249 0 0 0 3.286 1.869 57.825 57.825 0 0 1 3.132 1.673 14.06 14.06 0 0 1 2.38 1.636c1.884 1.689 2.826 3.295 2.826 4.82a5.742 5.742 0 0 1-.516 2.354 5.942 5.942 0 0 1-1.444 1.963 6.461 6.461 0 0 1-2.154 1.409c-.81.323-1.68.484-2.556.473a6.942 6.942 0 0 1-2.977-.58 6.697 6.697 0 0 1-2.408-1.782 7.929 7.929 0 0 1-2.075-5.388l-.992-.344-5.066 5.485a11.756 11.756 0 0 0 4.558 3.776c1.862.88 3.91 1.33 5.983 1.317a19.595 19.595 0 0 0 5.577-.838 20.944 20.944 0 0 0 5.143-2.276 12.21 12.21 0 0 0 3.78-3.639 8.318 8.318 0 0 0 1.464-4.686 7.04 7.04 0 0 0-.482-2.62 8.31 8.31 0 0 0-1.248-2.164 10.986 10.986 0 0 0-2.127-1.93 27.309 27.309 0 0 0-2.712-1.736 93.993 93.993 0 0 0-3.411-1.783 44.57 44.57 0 0 1-2.368-1.194 28.588 28.588 0 0 1-2.142-1.334c-.71-.47-1.36-1.02-1.933-1.638a7.521 7.521 0 0 1-1.223-1.92 5.666 5.666 0 0 1-.509-2.373 4.836 4.836 0 0 1 .363-1.953 4.993 4.993 0 0 1 1.124-1.663 5.27 5.27 0 0 1 1.806-1.135 5.426 5.426 0 0 1 2.128-.34 6.3 6.3 0 0 1 2.625.453c.83.336 1.573.845 2.175 1.49a8.456 8.456 0 0 1 2.176 4.698l.892.27 4.966-3.739Zm24.76 9.433a5.068 5.068 0 0 0-1.909-1.845 9.406 9.406 0 0 0-2.521-.946 13.378 13.378 0 0 0-2.889-.295 15.603 15.603 0 0 0-5.437.898 11.906 11.906 0 0 0-4.022 2.373 12.895 12.895 0 0 0-2.648 3.48 16.122 16.122 0 0 0-1.515 4.12 20.694 20.694 0 0 0-.458 4.402 12.496 12.496 0 0 0 .546 3.712 10.915 10.915 0 0 0 1.642 3.26 7.525 7.525 0 0 0 2.993 2.36 10.35 10.35 0 0 0 4.366.873c4.77 0 9.251-2.025 13.444-6.075l-.509-.713-.637-.147c-3.105 2.311-5.975 3.467-8.606 3.467a6.28 6.28 0 0 1-2.838-.627 5.688 5.688 0 0 1-2.027-1.622 9.74 9.74 0 0 1-1.286-2.288 11.89 11.89 0 0 1-.726-2.52 15.14 15.14 0 0 1-.204-2.46 18.7 18.7 0 0 1 .281-3.124c.199-1.15.498-2.28.891-3.382a7.023 7.023 0 0 1 1.808-2.854c.366-.357.802-.64 1.283-.832a4.03 4.03 0 0 1 1.518-.286 3.863 3.863 0 0 1 2 .435 3.685 3.685 0 0 1 1.462 1.385 8.384 8.384 0 0 1 1.12 4.477l.892.344 4.812-2.754a6.075 6.075 0 0 0-.826-2.816Zm9.332 7.317c.13-.966.356-1.917.676-2.84.292-.898.707-1.754 1.234-2.546a5.817 5.817 0 0 1 1.974-1.783 5.594 5.594 0 0 1 2.813-.7 5.784 5.784 0 0 1 3.042.773 5.187 5.187 0 0 1 1.973 2.116c.461.9.794 1.855.992 2.84.21 1.062.313 2.141.306 3.223 0 .984-.008 1.803-.026 2.459a29.17 29.17 0 0 1-.177 2.362 13.792 13.792 0 0 1-.421 2.287 11.35 11.35 0 0 1-.776 1.919 4.835 4.835 0 0 1-1.235 1.598 6.184 6.184 0 0 1-1.808.984 7.244 7.244 0 0 1-2.482.393 4.64 4.64 0 0 1-2.611-.763 5.731 5.731 0 0 1-1.819-1.88 11.352 11.352 0 0 1-1.095-2.57 16.485 16.485 0 0 1-.587-2.695 19.828 19.828 0 0 1-.152-2.373c-.001-.937.059-1.874.179-2.804Zm-3.157 12.717c1.85 1.623 4.787 2.435 8.81 2.435 1.487.009 2.971-.156 4.418-.493a13.293 13.293 0 0 0 3.841-1.586 11.225 11.225 0 0 0 3.069-2.742 12.593 12.593 0 0 0 2.011-4.084c.514-1.777.763-3.615.739-5.46a9.914 9.914 0 0 0-.839-4.33 10.263 10.263 0 0 0-2.649-3.59c-2.123-1.835-5.204-2.754-9.243-2.754-4.039 0-7.366 1.206-9.981 3.616a12.092 12.092 0 0 0-2.972 4.159 11.696 11.696 0 0 0-.949 4.966c0 4.395 1.247 7.682 3.743 9.863h.002Zm39.846-19.48c1.358 0 2.326.262 2.903.787.538.633.878 1.402.979 2.215.214.959.346 1.934.395 2.914.034.861.052 1.973.052 3.333a425.696 425.696 0 0 1-.038 5.3c-.009.533-.005 1.16.012 1.883.004.538.038 1.076.102 1.61.051.354.119.739.204 1.156.059.35.179.686.356.996.153.246.34.47.558.665a4.031 4.031 0 0 0 2.8.983c1.274 0 2.733-.623 4.38-1.869a47.323 47.323 0 0 0 3.921-3.518l-.585-.838h-.612a6.34 6.34 0 0 1-3.487 1.304c-.27.015-.54-.023-.794-.112a2.008 2.008 0 0 1-.684-.404 1.935 1.935 0 0 1-.446-.479 3.411 3.411 0 0 1-.266-1.008 13.645 13.645 0 0 1-.128-2.128c0-.54.03-1.415.089-2.62.047-.855.077-1.712.09-2.57v-1.476c.016-1.59.012-2.693-.013-3.309a22.74 22.74 0 0 0-.293-2.508 4.476 4.476 0 0 0-.789-2.19 5.312 5.312 0 0 0-1.579-1.13 5.716 5.716 0 0 0-2.597-.53c-2.988 0-6.451 1.181-10.388 3.543l-.612-.222a4.548 4.548 0 0 0-.877-2.52c-.502-.633-1.363-.948-2.585-.948a7.197 7.197 0 0 0-2.152.357c-.806.26-1.576.616-2.292 1.057a34.88 34.88 0 0 0-2.012 1.304 59.65 59.65 0 0 0-1.973 1.463l.942 1.205c.173-.107.347-.214.522-.319.297-.18.555-.327.776-.443.221-.114.484-.25.79-.406a5.51 5.51 0 0 1 .853-.359c.225-.074.461-.116.699-.123.295-.006.586.065.841.21.259.164.454.406.558.688.127.298.237.6.33.91.105.416.164.84.179 1.267.035.559.055 1.01.062 1.353.007.343.011.86.012 1.55v.418c0 1.607-.127 6.526-.381 14.757l.636.344 5.729-1.599c-.17-.704-.297-2.926-.382-6.664a461.163 461.163 0 0 1-.124-10.97c2.953-1.541 5.058-2.312 6.314-2.312l.005.002Zm24.698 8.386a.708.708 0 0 1-.153.026c-.254 0-.381-.09-.382-.27.001-.817.064-1.63.192-2.436.143-.879.381-1.74.712-2.57a9.675 9.675 0 0 1 1.299-2.362 6.055 6.055 0 0 1 2.185-1.744 6.297 6.297 0 0 1 2.767-.605 4.12 4.12 0 0 1 2.002.397c.621.298 1.15.746 1.537 1.3a6.575 6.575 0 0 1 1.196 3.886c-.004.254-.087.5-.239.706a1.297 1.297 0 0 1-.614.45 42.835 42.835 0 0 1-4.263 1.403 292.583 292.583 0 0 0-6.086 1.796.787.787 0 0 0-.152.023h-.001Zm15.124 7.674c-3.057 1.788-5.696 2.682-7.919 2.68a7.445 7.445 0 0 1-4.227-1.203 7.382 7.382 0 0 1-2.66-3.013 9.026 9.026 0 0 1-.853-3.9c11.101-3.327 16.703-4.991 16.805-4.991a1.892 1.892 0 0 0 1.11-.667c.276-.343.415-.77.392-1.203a6.815 6.815 0 0 0-.853-3.468 6.102 6.102 0 0 0-2.304-2.3 11.425 11.425 0 0 0-3.145-1.205 16.63 16.63 0 0 0-3.656-.382 15.916 15.916 0 0 0-6.413 1.243 12.267 12.267 0 0 0-4.595 3.32 14.925 14.925 0 0 0-2.661 4.674 16.136 16.136 0 0 0-.916 5.423c0 3.788 1.06 6.624 3.182 8.51 1.918 1.722 4.625 2.582 8.122 2.582a13.51 13.51 0 0 0 5.768-1.352 45.007 45.007 0 0 0 6.174-3.592l-.557-.957-.794-.199Z" fill="#9C9C9C"/></g></g><defs><clipPath id="a"><path fill="#fff" d="M0 0h279v53H0z"/></clipPath></defs></svg>