<svg width="190" height="46" fill="none" xmlns="http://www.w3.org/2000/svg"><path d="M65.635 43.117V2.27H55.264L33.579 33.79l-3.66-4.582c6.544-.994 10.204-6.735 10.204-12.862 0-5.85-3.216-10.764-7.542-12.64-2.163-.939-5.38-1.436-9.65-1.436H9.454v40.848h10.038V29.925h.111l9.484 13.192H39.68l3.605-5.906h11.868v5.906h10.482ZM19.492 22.804V11.433h3.994c3.937 0 6.6 1.987 6.6 5.52 0 3.753-2.496 5.85-6.656 5.85h-3.938Zm35.66 6.127h-6.876l6.766-11.316h.11V28.93Zm52.546 14.186V2.27H97.66l.444 25.834L82.132 2.269h-9.04v40.848H83.13l-.277-24.95 15.75 24.95h9.095Zm30.27 0v-9.163h-12.756v-7.01h12.368V17.78h-12.368v-6.348h12.756V2.268h-22.794v40.848h22.794Zm41.666 0-14.475-20.479L178.747 2.27h-10.981l-11.591 18.382h-.111V2.269h-10.482v40.848h10.482V25.453h.111l11.202 17.664h12.257Z" fill="#9C9C9C"/></svg>