<svg width="242" height="56" fill="none" xmlns="http://www.w3.org/2000/svg"><g clip-path="url(#a)" fill="#9C9C9C"><path d="M65.983 50.222c-4.004 0-7.073-.647-9.209-1.94-2.098-1.33-3.146-3.272-3.146-5.824 0-1.294.458-2.355 1.372-3.182.954-.862 2.175-1.293 3.662-1.293.877.036 1.544.25 2.002.647.458.36.687.701.687 1.024 0 .036-.192.162-.573.377-.38.217-.723.54-1.03.97-.305.433-.458 1.026-.458 1.78 0 1.69.536 3.002 1.603 3.937 1.106.899 2.803 1.347 5.09 1.347 1.565 0 2.937-.286 4.12-.862 1.182-.575 2.078-1.33 2.688-2.265.648-.97.972-1.977.972-3.02 0-1.293-.4-2.407-1.2-3.342a9.283 9.283 0 0 0-2.86-2.319c-1.146-.646-2.709-1.384-4.692-2.211-2.287-.97-4.136-1.85-5.547-2.642a11.71 11.71 0 0 1-3.606-3.127c-.99-1.33-1.486-2.965-1.486-4.907 0-3.127 1.124-5.464 3.374-7.01 2.29-1.546 5.283-2.318 8.982-2.318 2.898 0 5.414.575 7.55 1.726 2.175 1.15 3.261 2.84 3.261 5.067 0 1.295-.477 2.373-1.43 3.236-.915.827-2.117 1.24-3.604 1.24-.877-.036-1.544-.234-2.001-.593-.459-.395-.688-.755-.688-1.078 0-.037.248-.162.744-.378a3.603 3.603 0 0 0 1.373-.97c.42-.432.63-1.025.63-1.78 0-1.33-.553-2.372-1.66-3.127-1.068-.756-2.44-1.132-4.119-1.132-2.325 0-4.099.521-5.318 1.563-1.183 1.007-1.774 2.265-1.774 3.775 0 1.257.361 2.319 1.086 3.18.724.828 1.888 1.654 3.49 2.481 1.388.69 2.8 1.337 4.232 1.942 2.441 1.042 4.367 1.995 5.778 2.858a11.3 11.3 0 0 1 3.604 3.397c.991 1.4 1.488 3.145 1.488 5.23 0 1.797-.61 3.433-1.83 4.907-1.183 1.438-2.805 2.57-4.863 3.396-2.022.827-4.253 1.24-6.694 1.24Zm28.96-.43c-2.593 0-4.653-.738-6.178-2.212-1.526-1.473-2.288-3.415-2.288-5.823V31.78c0-.934-.039-1.617-.115-2.049-.037-.43-.266-.808-.687-1.132-.418-.323-1.124-.485-2.115-.485-.459 0-.801-.053-1.03-.162-.23-.143-.343-.45-.343-.916 0-.217.076-.414.23-.592.151-.217.38-.342.686-.378 2.402-.325 4.462-.792 6.177-1.403.534-.18.972-.287 1.315-.324h.172c.61 0 .916.342.916 1.025v16.338c0 1.654.553 2.93 1.658 3.829a6.056 6.056 0 0 0 3.833 1.293c1.792 0 3.317-.413 4.576-1.24 1.259-.827 2.098-1.653 2.517-2.48V31.782c0-.935-.038-1.617-.114-2.05-.038-.43-.267-.808-.687-1.132-.42-.323-1.125-.485-2.117-.485-.458 0-.8-.053-1.028-.162-.23-.143-.344-.45-.344-.916 0-.217.076-.414.229-.592.152-.217.381-.342.686-.378 2.403-.325 4.462-.792 6.179-1.403.533-.18.972-.287 1.314-.324h.173c.61 0 .915.342.915 1.025v18.658c0 2.121 1.506 3.181 4.519 3.181.647 0 .972.342.972 1.025 0 .503-.325.809-.972.916l-9.21.593c-.267 0-.42-.09-.459-.268-.036-.145-.056-.414-.056-.809V45.64h-.114a67.851 67.851 0 0 1-2.689 2.264c-.686.503-1.582.935-2.69 1.294-1.067.396-2.344.593-3.83.593Zm23.15-.485a.906.906 0 0 1-.383-.087.85.85 0 0 1-.304-.238 1.275 1.275 0 0 1-.229-.754c.038-.467.153-.738.344-.808.191-.108.534-.163 1.03-.163.991 0 1.696-.162 2.116-.485.42-.324.649-.702.686-1.132.077-.433.115-1.115.115-2.05V31.242c0-.934-.038-1.617-.115-2.05-.037-.43-.266-.808-.686-1.13-.42-.324-1.125-.486-2.116-.486-.459 0-.801-.054-1.029-.162-.229-.144-.344-.449-.344-.917a.89.89 0 0 1 .229-.592c.152-.216.381-.342.686-.378 2.479-.36 4.519-.827 6.121-1.402.649-.18 1.086-.288 1.316-.323h.171c.61 0 .915.341.915 1.024v3.343h.172c1.335-1.259 2.689-2.247 4.061-2.966 1.374-.755 2.613-1.132 3.718-1.132 1.259 0 2.251.45 2.976 1.348a4.421 4.421 0 0 1 1.143 3.02 4.13 4.13 0 0 1-.972 2.695c-.649.792-1.545 1.187-2.688 1.187a3.086 3.086 0 0 1-1.431-.324c-.381-.216-.591-.395-.629-.538.038-.072.229-.288.571-.648.344-.395.515-.844.515-1.348 0-.647-.19-1.168-.571-1.563-.344-.396-.82-.593-1.431-.593-.647 0-1.467.305-2.459.916-.992.576-1.964 1.312-2.917 2.21V43.59c0 .935.038 1.617.114 2.05.077.43.324.808.744 1.132.419.323 1.125.485 2.116.485h.344c.305 0 .533.055.686.162.152.108.247.378.286.808 0 .288-.076.54-.229.755-.152.217-.381.325-.686.325a124.429 124.429 0 0 0-6.006-.163c-1.716 0-3.699.056-5.95.163Zm88.843.485c-2.593 0-4.9-.576-6.921-1.727-2.022-1.185-3.604-2.731-4.748-4.637a12.235 12.235 0 0 1-1.659-6.147c0-2.695.667-5.032 2.002-7.009 1.335-2.013 3.032-3.541 5.091-4.583 2.06-1.079 4.138-1.618 6.235-1.618 2.594 0 4.901.593 6.922 1.78 1.983 1.111 3.605 2.715 4.69 4.636a11.637 11.637 0 0 1 1.717 6.093c0 2.696-.687 5.051-2.059 7.065-1.335 1.977-3.032 3.504-5.092 4.582-2.058 1.043-4.118 1.565-6.178 1.565Zm0-1.995c2.594 0 4.481-1.043 5.663-3.128 1.221-2.084 1.831-4.781 1.831-8.088 0-3.092-.63-5.607-1.887-7.55-1.221-1.976-3.09-2.964-5.607-2.964-2.63 0-4.537 1.024-5.72 3.073-1.182 2.049-1.773 4.726-1.773 8.034 0 3.09.61 5.644 1.831 7.656 1.22 1.978 3.108 2.967 5.662 2.967Zm27.743 2.264c-1.87 0-3.471-.647-4.806-1.94-1.334-1.296-2.002-3.146-2.002-5.555V26.713l-3.318.109a.737.737 0 0 1-.32-.07.7.7 0 0 1-.252-.2 1.191 1.191 0 0 1-.229-.702c0-.323.058-.592.172-.808.153-.252.363-.396.629-.432 1.335-.25 2.365-.647 3.09-1.185.762-.577 1.316-1.187 1.658-1.834.344-.683.764-1.708 1.259-3.075.191-.466.61-.7 1.258-.7.267 0 .534.072.801.216.266.108.4.288.4.54l-.4 6.146 6.693-.378h.115c.495 0 .743.342.743 1.025 0 .395-.076.773-.23 1.132-.113.325-.266.486-.457.486l-6.406-.161v16.391c0 1.187.247 2.175.743 2.965.534.792 1.392 1.187 2.575 1.187 1.182 0 2.231-.198 3.145-.593.497-.18.801-.27.915-.27a.73.73 0 0 1 .63.323c.153.18.305.433.458.755.041.085.06.177.057.27 0 .144-.115.305-.344.485-1.106.684-2.154 1.133-3.145 1.349-.954.25-2.098.377-3.432.377Zm-92.457-1.079c.152.217.381.324.686.324 1.981-.103 3.965-.157 5.949-.162 2.556 0 4.939.055 7.151.162a.754.754 0 0 0 .36-.083.701.701 0 0 0 .269-.24c.152-.217.228-.468.228-.756-.037-.43-.133-.7-.286-.808-.114-.107-.342-.162-.686-.162h-.344c-1.257 0-2.154-.09-2.688-.27-.534-.179-.896-.503-1.086-.97-.191-.504-.286-1.312-.286-2.426V26.82h6.064c.133 0 .264-.03.383-.086a.86.86 0 0 0 .303-.237c.19-.215.286-.467.286-.755-.039-.43-.154-.7-.344-.809-.152-.143-.4-.216-.743-.216h-5.949v-3.234c0-1.725.076-3.235.228-4.53a8.411 8.411 0 0 1 1.315-3.667c.725-1.114 1.85-1.67 3.376-1.67.175 0 .345.008.509.028a8.736 8.736 0 0 1 .125-1.805 10.258 10.258 0 0 0-.234-.004c-3.356.072-5.968 1.276-7.836 3.614-1.831 2.3-2.746 5.302-2.746 9.004v2.265h-3.432c-.496 0-.84.054-1.03.162-.191.072-.306.36-.343.862 0 .288.076.54.228.755a.947.947 0 0 0 .744.324h3.833v16.77c0 .971-.039 1.672-.115 2.103-.037.396-.266.755-.686 1.079-.42.323-1.125.485-2.116.485-.496 0-.84.055-1.03.162-.152.071-.248.341-.286.808 0 .288.076.54.229.755Z"/><path fill-rule="evenodd" clip-rule="evenodd" d="M172.8 11.334a5.724 5.724 0 0 1-.485 2.294 5.992 5.992 0 0 1-1.379 1.944 6.38 6.38 0 0 1-2.061 1.298 6.68 6.68 0 0 1-2.43.454c-1.684.001-3.3-.63-4.492-1.753-1.192-1.123-1.862-2.647-1.864-4.237a5.71 5.71 0 0 1 .485-2.295 5.993 5.993 0 0 1 1.378-1.944 6.398 6.398 0 0 1 2.062-1.299 6.68 6.68 0 0 1 2.431-.454c.834-.001 1.66.153 2.43.454.771.3 1.472.742 2.062 1.299a5.978 5.978 0 0 1 1.378 1.944c.32.728.485 1.507.485 2.295Zm-6.355 2.995c.416 0 .829-.077 1.215-.227.385-.15.735-.37 1.031-.649.295-.278.529-.608.689-.972a2.845 2.845 0 0 0 0-2.294 2.997 2.997 0 0 0-.689-.973 3.187 3.187 0 0 0-1.031-.65 3.333 3.333 0 0 0-1.215-.226c-.842 0-1.65.315-2.246.876a2.916 2.916 0 0 0-.932 2.119c.001.795.336 1.557.932 2.119a3.274 3.274 0 0 0 2.246.877Zm-2.786 5.602v28.89c0 .323.096.574.287.754.19.216.457.324.801.324.342 0 .628-.144.857-.43.229-.253.439-.63.63-1.134.19-.503.361-.898.514-1.187h.286c2.479 1.762 5.415 2.642 8.809 2.642 2.289 0 4.443-.575 6.464-1.725a12.987 12.987 0 0 0 4.806-4.692c1.219-2.012 1.829-4.222 1.829-6.63 0-2.446-.533-4.62-1.601-6.526-1.029-1.94-2.459-3.45-4.29-4.529-1.831-1.078-3.871-1.617-6.12-1.617-1.374 0-2.766.269-4.177.809a10.799 10.799 0 0 0-3.718 2.318h-.171v-7.17a10.17 10.17 0 0 1-5.206-.097Zm17.276 25.06c-1.411 1.979-3.281 2.967-5.606 2.967-1.22 0-2.307-.252-3.261-.755-.915-.503-1.659-1.097-2.231-1.78-.534-.718-.857-1.366-.972-1.94V29.248c1.639-1.655 3.66-2.481 6.064-2.481 2.707 0 4.747 1.006 6.12 3.02 1.373 1.977 2.059 4.367 2.059 7.17 0 3.344-.724 6.022-2.173 8.035ZM15.716.519a2.485 2.485 0 0 1 1.386-.419c.497 0 .981.147 1.386.419C28.81 7.468 33.49 15.8 33.786 27.758c.136 5.708-.447 10.935-2.22 15.45-1.822 4.519-5.057 8.693-9.82 12.218a2.458 2.458 0 0 1-1.013.434c-.369.067-.75.051-1.11-.047-1.46-.395-1.708-2.026-2.521-3.041-.813 1.016-1.059 2.645-2.52 3.04-.362.098-.742.113-1.11.046a2.456 2.456 0 0 1-1.012-.433c-4.764-3.524-8-7.698-9.82-12.217C.867 38.693.283 33.466.42 27.758.713 15.8 5.392 7.467 15.715.517Zm5.338 49.759c2.981-2.585 4.778-5.404 6.047-8.646 1.598-3.963 2.059-8.343 1.92-13.769-.23-9.323-2.545-15.39-9.555-21.022v16.476c2.741.665 3.971 3.2 3.971 5.99 0 2.792-1.23 5.327-3.971 5.992v13.48s1.273 1.108 1.588 1.499Zm-7.945 0c-2.981-2.585-4.736-5.404-6.006-8.646-1.597-3.963-2.057-8.343-1.918-13.769.23-9.304 2.532-15.396 9.513-21.022v16.476c-2.74.665-3.972 3.2-3.972 5.99 0 2.792 1.23 5.327 3.972 5.992v13.48s-1.285 1.122-1.59 1.499ZM17.08 26.31c-.841 0-1.65.315-2.245.876a2.917 2.917 0 0 0-.932 2.12c0 1.655 1.423 2.995 3.177 2.995.842 0 1.65-.314 2.246-.876a2.917 2.917 0 0 0 .932-2.119c0-1.654-1.423-2.996-3.178-2.996Z"/></g><defs><clipPath id="a"><path fill="#fff" transform="translate(.4 .1)" d="M0 0h241.2v55.8H0z"/></clipPath></defs></svg>