<svg width="263" height="43" fill="none" xmlns="http://www.w3.org/2000/svg"><path d="M39.287 39.66a8.867 8.867 0 0 1-4.082-.874 8.155 8.155 0 0 1-3.108-2.607c-2.47 2.138-5.67 3.373-9.021 3.482-6.023 0-9.287-3.943-8.185-9.596.838-4.25 4.588-8.509 5.636-11.928-2.028-1.148-5.04-1.947-6.452.398l-.926-.522c.739-2.57 2.525-4.28 5.106-4.28 2.58 0 4.489 1.423 6.948.113h1.963c-1.047 5.12-3.694 9.215-5.106 16.383-.86 4.394.739 6.39 3.442 6.39 1.996-.231 3.833-1.146 5.16-2.57a19.468 19.468 0 0 1-1.599-7.875c0-6.226 3.077-12.79 8.239-12.79 2.647 0 4.61 1.71 4.61 5.766 0 4.054-2.647 10.332-6.022 14.273.182.94.712 1.79 1.498 2.405a4.621 4.621 0 0 0 2.804.966c4.918 0 8.359-6.853 8.359-13.19 0-6.338-2.955-6.052-2.702-8.192a1.95 1.95 0 0 1 .232-.767c.13-.239.309-.45.526-.624a2.316 2.316 0 0 1 1.591-.493c1.534 0 3.55 1.802 3.55 9.114 0 9.317-5.336 17.019-12.46 17.019ZM38.174 16.6c-1.534 0-3.012 5.253-3.2 10.68-.071 1.16-.049 2.325.067 3.482 2.313-3.55 3.724-7.556 4.124-11.704-.01-1.844-.374-2.459-.992-2.459v.001Zm23.678 22.825a4.735 4.735 0 0 1-1.904-.206 4.477 4.477 0 0 1-1.63-.936 4.081 4.081 0 0 1-1.049-1.49 3.826 3.826 0 0 1-.27-1.761c0-2.51 3.508-15.013 3.508-17.07 0-.973-.243-1.546-1.17-1.546a5.51 5.51 0 0 0-2.768 1.259v-1.771c1.605-1.373 3.678-2.161 5.845-2.222.647-.055 1.299.023 1.911.227.611.205 1.167.53 1.63.954.46.424.818.936 1.045 1.503.226.564.318 1.169.266 1.77 0 2.508-3.506 14.96-3.506 17.008 0 .974.242 1.547 1.17 1.547a5.962 5.962 0 0 0 2.767-1.198v1.71c-1.6 1.381-3.676 2.17-5.845 2.222Zm4.3-36.138c.481-.013.96.069 1.403.244.442.175.839.437 1.16.768.323.329.564.721.706 1.148.143.427.183.879.118 1.322-.119.947-.6 1.82-1.354 2.457a4.416 4.416 0 0 1-2.76 1.025 3.534 3.534 0 0 1-1.4-.243 3.317 3.317 0 0 1-1.162-.769 2.992 2.992 0 0 1-.706-1.148 2.862 2.862 0 0 1-.118-1.322c.119-.947.6-1.82 1.354-2.456a4.418 4.418 0 0 1 2.76-1.026ZM79.807 34.06c-.308 1.545-.12 2.62 1.049 2.62a5.71 5.71 0 0 0 2.767-1.198l.11 1.72c-1.605 1.373-3.678 2.162-5.845 2.223-3.816 0-5.293-2.57-4.73-5.765l3.75-19.814c1.246-6.616.815-7.487-3.001-7.487l.242-1.596 11.503-1.414-5.845 30.71Zm32.348-.053c-.309 1.547-.188 2.684 1.048 2.684a6.025 6.025 0 0 0 2.769-1.26v1.771c-1.595 1.389-3.674 2.18-5.845 2.223a4.651 4.651 0 0 1-3.057-.872 4.049 4.049 0 0 1-1.621-2.558 9.903 9.903 0 0 1-3.474 2.698 10.674 10.674 0 0 1-4.4 1.009c-7.312 0-10.389-5.99-8.977-13.19 1.412-7.198 7.995-13.076 15.44-13.076 1.76-.035 3.501.349 5.062 1.115l.187-.91c1.457-7.046.784-7.282-3.032-7.282l.187-1.596 11.557-1.414-5.845 30.66.001-.002Zm-7.93-17.99c-4.246 0-7.069 4.678-8.183 10.444-1.17 6.052-.43 10.24 3.562 10.24 2.702 0 5.779-3.073 6.705-7.762l2.273-11.878a8.269 8.269 0 0 0-4.357-1.045Zm27.363 23.694c-8.548 0-10.886-5.714-9.838-11.192l2.79-14.673c1.291-6.625.861-7.538-2.955-7.538l.241-1.597 11.537-1.362-2.338 12.442c1.804-1.453 4.081-2.28 6.453-2.345 7.444 0 10.94 5.878 9.594 13.076-1.345 7.2-8.194 13.189-15.484 13.189Zm3.992-23.551a6.18 6.18 0 0 0-3.435 1.108 5.485 5.485 0 0 0-2.079 2.772l-1.721 9.216c-1.048 5.478 1.049 7.71 3.696 7.71 3.87 0 6.275-3.992 7.564-10.556 1.148-5.878.101-10.22-4.036-10.22l.011-.03Zm23.15 13.68c0 4.394 2.271 6.738 6.617 6.738 2.206 0 5.415-1.422 7.445-3.307l.86 1.822a15.963 15.963 0 0 1-5.153 3.378 16.935 16.935 0 0 1-6.163 1.25c-6.451 0-10.819-4.454-10.819-10.506 0-8.96 7.995-15.759 15.683-15.759 4.676 0 7.311 2.396 7.311 5.192-.054 4.341-4.487 9.216-15.781 11.192Zm7.929-13.762c-3.507 0-6.881 4.74-7.808 11.53 7.069-1.598 10.08-6.052 10.146-8.909-.011-1.597-.816-2.621-2.349-2.621h.011Zm32.944 23.347a4.652 4.652 0 0 1-3.057-.872 4.047 4.047 0 0 1-1.619-2.558 9.537 9.537 0 0 1-3.389 2.7 10.29 10.29 0 0 1-4.332 1.006c-7.19 0-10.267-5.99-8.823-13.19 1.445-7.197 7.919-13.066 15.386-13.066a12.4 12.4 0 0 1 4.609.862h7.014l-3.76 19.7c-.309 1.547-.187 2.684 1.048 2.684a6.027 6.027 0 0 0 2.768-1.26v1.771c-1.595 1.389-3.674 2.18-5.845 2.223Zm-5.658-23.409c-4.125 0-7.014 4.68-8.118 10.445-1.169 6.052-.363 10.24 3.309 10.24 2.824 0 5.845-3.195 6.706-7.762l2.272-11.878a7.547 7.547 0 0 0-4.158-1.045h-.011Zm32.965 4.167c-1.665 0-2.096-1.197-2.58-2.457a2.807 2.807 0 0 0-1.122-1.59 3.188 3.188 0 0 0-1.956-.56 3.845 3.845 0 0 0-2.515.767 3.349 3.349 0 0 0-1.301 2.14c-.187 1.548 1.047 2.858 3.385 4.742l3.133 2.396a7.55 7.55 0 0 1 2.613 3.187 6.964 6.964 0 0 1 .464 3.981c-.795 4.28-4.61 6.912-9.717 6.912-6.154 0-10.08-3.37-9.65-5.653.1-.6.426-1.15.921-1.546a2.889 2.889 0 0 1 1.782-.625c1.599 0 2.205 1.138 2.701 2.622a4.156 4.156 0 0 0 1.743 2.08c.814.497 1.778.73 2.746.664a4.048 4.048 0 0 0 2.638-.817 3.52 3.52 0 0 0 1.355-2.254c.242-2.049-1.103-3.307-3.628-5.428l-3.077-2.509a7.25 7.25 0 0 1-2.449-2.967 6.7 6.7 0 0 1-.508-3.708c.552-2.745 3.309-6.145 9.651-6.145 4.918 0 7.996 2.57 7.72 4.628a2.184 2.184 0 0 1-.724 1.497 2.523 2.523 0 0 1-1.625.643Zm22.51-3.583h-5.967l-2.889 15.175c-.618 3.144-.122 4.568 1.72 4.568.982 0 2.525-.512 4.731-2.622l.121 2.222a10.685 10.685 0 0 1-3.641 2.596 11.427 11.427 0 0 1-4.476.947c-4.179 0-6.275-2.744-5.282-7.824l2.889-15.062h-4.665l.364-2.345h4.709l1.235-6.79h6.883l-1.291 6.79h5.967l-.408 2.345Z" fill="#9C9C9C"/></svg>