<svg width="100" height="100" fill="none" xmlns="http://www.w3.org/2000/svg"><path fill="#fff" d="M0 0h100v100H0z"/><path d="M59.333 43H58.24l-2.267-6.24A2.677 2.677 0 0 0 53.467 35h-2.134C50.6 35 50 35.6 50 36.333c0 .734.6 1.334 1.333 1.334h2.134L55.413 43H49l-.48-1.333h.12c.733 0 1.333-.6 1.333-1.334 0-.733-.6-1.333-1.333-1.333h-3.973c-.734 0-1.334.6-1.334 1.333 0 .734.6 1.334 1.334 1.334h1l2.426 6.666H47.2c-.587-2.973-3.08-5.173-6.2-5.32-3.733-.186-7 2.92-7 6.654 0 3.733 2.933 6.666 6.667 6.666 3.28 0 5.933-2.253 6.533-5.333h5.6c.587 2.973 3.08 5.173 6.2 5.32 3.733.173 7-2.92 7-6.667C66 45.933 63.067 43 59.333 43ZM42 51h2.427c-.56 1.64-2.134 2.773-4.027 2.653-1.987-.12-3.64-1.8-3.733-3.8-.094-2.333 1.693-4.186 4-4.186a3.932 3.932 0 0 1 3.76 2.666H42c-.733 0-1.333.6-1.333 1.334 0 .733.6 1.333 1.333 1.333Zm10.8-2.667h-1.867l-.973-2.666H54a6.311 6.311 0 0 0-1.2 2.666Zm6.373 5.334c-2.053-.08-3.786-1.827-3.84-3.894-.026-1.28.52-2.4 1.4-3.146l.827 2.266a1.33 1.33 0 0 0 1.707.8 1.33 1.33 0 0 0 .8-1.706l-.84-2.307.013-.013a3.957 3.957 0 0 1 4.093 4c0 2.293-1.84 4.08-4.16 4Zm-10.506 6.666h-5.334l8 4v-2.666h5.334l-8-4v2.666Z" fill="url(#a)"/><defs><linearGradient id="a" x1="50.074" y1="35" x2="50.074" y2="64.333" gradientUnits="userSpaceOnUse"><stop stop-color="#FFBF00"/><stop offset="1" stop-color="#F2A60C"/></linearGradient></defs></svg>