<svg width="100" height="100" fill="none" xmlns="http://www.w3.org/2000/svg"><path fill="#fff" d="M0 0h100v100H0z"/><path d="M49.994 42.997h-2.398a1.16 1.16 0 0 1-.855-.345 1.16 1.16 0 0 1-.345-.854c0-.34.115-.625.345-.855.23-.23.515-.345.855-.345h2.398V38.2c0-.34.115-.624.345-.854.23-.23.515-.345.855-.345.34 0 .624.115.854.345.23.23.345.515.345.854v2.4h2.4c.339 0 .624.114.854.344.23.23.345.515.345.855 0 .34-.115.624-.345.854a1.16 1.16 0 0 1-.855.345h-2.399v2.399c0 .34-.115.625-.345.855a1.16 1.16 0 0 1-.854.345 1.16 1.16 0 0 1-.855-.345 1.16 1.16 0 0 1-.345-.855v-2.399Zm-4.797 19.191a2.31 2.31 0 0 1-1.695-.705 2.31 2.31 0 0 1-.704-1.694c0-.66.235-1.224.704-1.694a2.31 2.31 0 0 1 1.695-.705c.66 0 1.224.235 1.694.705s.705 1.035.705 1.694a2.31 2.31 0 0 1-.705 1.694 2.31 2.31 0 0 1-1.694.705Zm11.994 0a2.31 2.31 0 0 1-1.694-.705 2.31 2.31 0 0 1-.705-1.694c0-.66.235-1.224.705-1.694a2.31 2.31 0 0 1 1.694-.705c.66 0 1.224.235 1.694.705s.705 1.035.705 1.694a2.31 2.31 0 0 1-.705 1.694 2.31 2.31 0 0 1-1.694.705Zm-16.792-21.59h-1.2a1.16 1.16 0 0 1-.854-.344 1.16 1.16 0 0 1-.345-.855c0-.34.115-.625.345-.855.23-.23.515-.345.854-.345h1.98c.22 0 .43.06.63.18s.349.29.449.51l4.768 10.105h8.396l4.348-7.796c.1-.2.24-.35.42-.45.18-.1.38-.15.6-.15.459 0 .804.195 1.034.585.23.39.235.785.015 1.184l-4.288 7.767c-.22.4-.515.71-.885.93-.37.22-.774.33-1.214.33h-8.936l-1.32 2.398H58.39c.34 0 .625.115.855.345.23.23.345.515.345.855 0 .34-.115.624-.345.854a1.16 1.16 0 0 1-.855.345H45.197c-.9 0-1.585-.39-2.054-1.17-.47-.78-.485-1.569-.045-2.368l1.619-2.939-4.318-9.116Z" fill="#CCC"/></svg>