<svg width="38" height="38" fill="none" xmlns="http://www.w3.org/2000/svg"><path fill="#fff" d="M0 0h38v38H0z"/><path d="M18.333 11C13.75 11 10 14.75 10 19.333s3.75 8.333 8.333 8.333 8.333-3.75 8.333-8.333S22.916 11 18.333 11Zm2.958 11.5-3.4-2.092a.821.821 0 0 1-.4-.708v-3.909a.642.642 0 0 1 .634-.625.63.63 0 0 1 .625.625v3.708l3.2 1.925c.3.184.4.575.216.876a.64.64 0 0 1-.875.2Z" fill="url(#a)"/><defs><linearGradient id="a" x1="18.371" y1="11" x2="18.371" y2="27.666" gradientUnits="userSpaceOnUse"><stop stop-color="#FFBF00"/><stop offset="1" stop-color="#F2A60C"/></linearGradient></defs></svg>