<svg width="100" height="100" fill="none" xmlns="http://www.w3.org/2000/svg"><path fill="#fff" d="M0 0h100v100H0z"/><path d="M56.293 44.916A1.922 1.922 0 0 0 54.376 43H52.46a.961.961 0 0 0-.959.957c0 .528.432.96.96.96h1.915v2.54l-3.335 4.168h-3.373v-3.834a.961.961 0 0 0-.958-.959h-2.876A3.832 3.832 0 0 0 40 50.666v1.916c0 .528.431.96.959.96h.957a2.871 2.871 0 0 0 2.875 2.874 2.87 2.87 0 0 0 2.875-2.875h3.374c.585 0 1.131-.269 1.495-.719l3.335-4.168c.277-.345.421-.768.421-1.198l.002-2.54Zm-11.5 9.584a.961.961 0 0 1-.958-.959h1.916a.961.961 0 0 1-.958.959Z" fill="#9C9C9C"/><path d="M43.834 43.957h2.875c.527 0 .959.432.959.96a.96.96 0 0 1-.958.957h-2.876a.962.962 0 0 1-.959-.958c0-.527.431-.959.959-.959Zm12.46 6.708a2.871 2.871 0 0 0-2.875 2.875 2.87 2.87 0 0 0 2.875 2.875 2.87 2.87 0 0 0 2.875-2.875 2.871 2.871 0 0 0-2.875-2.875Zm0 3.834a.962.962 0 0 1-.959-.96c0-.525.431-.957.96-.957.527 0 .958.432.958.958a.961.961 0 0 1-.959.959Z" fill="#9C9C9C"/></svg>