<svg width="38" height="38" fill="none" xmlns="http://www.w3.org/2000/svg"><path fill="#fff" d="M0 0h38v38H0z"/><path d="M26 12H12.666c-.916 0-1.658.75-1.658 1.667l-.008 10c0 .917.75 1.667 1.666 1.667H26c.916 0 1.666-.75 1.666-1.667v-10c0-.917-.75-1.667-1.666-1.667Zm-.334 3.542-5.891 3.684a.843.843 0 0 1-.884 0L13 15.542a.709.709 0 1 1 .75-1.2l5.583 3.492 5.583-3.492a.707.707 0 1 1 .75 1.2Z" fill="url(#a)"/><defs><linearGradient id="a" x1="19.371" y1="12" x2="19.371" y2="25.334" gradientUnits="userSpaceOnUse"><stop stop-color="#FFBF00"/><stop offset="1" stop-color="#F2A60C"/></linearGradient></defs></svg>