<svg width="100" height="100" fill="none" xmlns="http://www.w3.org/2000/svg"><path fill="#fff" d="M0 0h100v100H0z"/><path d="M49.667 44.333a5.332 5.332 0 0 0-5.334 5.334A5.332 5.332 0 0 0 49.667 55 5.332 5.332 0 0 0 55 49.667a5.332 5.332 0 0 0-5.333-5.334Zm11.92 4A11.993 11.993 0 0 0 51 37.747v-1.414C51 35.6 50.4 35 49.667 35c-.734 0-1.334.6-1.334 1.333v1.414a11.992 11.992 0 0 0-10.586 10.586h-1.414c-.733 0-1.333.6-1.333 1.334C35 50.4 35.6 51 36.333 51h1.414a11.992 11.992 0 0 0 10.586 10.587V63c0 .733.6 1.333 1.334 1.333.733 0 1.333-.6 1.333-1.333v-1.413A11.993 11.993 0 0 0 61.587 51H63c.733 0 1.333-.6 1.333-1.333 0-.734-.6-1.334-1.333-1.334h-1.413ZM49.667 59a9.327 9.327 0 0 1-9.334-9.333 9.327 9.327 0 0 1 9.334-9.334A9.327 9.327 0 0 1 59 49.667 9.326 9.326 0 0 1 49.667 59Z" fill="url(#a)"/><defs><linearGradient id="a" x1="49.734" y1="35" x2="49.734" y2="64.333" gradientUnits="userSpaceOnUse"><stop stop-color="#FFBF00"/><stop offset="1" stop-color="#F2A60C"/></linearGradient></defs></svg>