<svg width="30" height="30" fill="none" xmlns="http://www.w3.org/2000/svg"><path d="M14.667 9.333a5.332 5.332 0 0 0-5.334 5.334A5.332 5.332 0 0 0 14.667 20 5.332 5.332 0 0 0 20 14.667a5.332 5.332 0 0 0-5.333-5.334Zm11.92 4A11.993 11.993 0 0 0 16 2.747V1.333C16 .6 15.4 0 14.667 0c-.734 0-1.334.6-1.334 1.333v1.414A11.992 11.992 0 0 0 2.747 13.333H1.333c-.733 0-1.333.6-1.333 1.334C0 15.4.6 16 1.333 16h1.414a11.992 11.992 0 0 0 10.586 10.587V28c0 .733.6 1.333 1.334 1.333.733 0 1.333-.6 1.333-1.333v-1.413A11.993 11.993 0 0 0 26.587 16H28c.733 0 1.333-.6 1.333-1.333 0-.734-.6-1.334-1.333-1.334h-1.413ZM14.667 24a9.326 9.326 0 0 1-9.334-9.333 9.327 9.327 0 0 1 9.334-9.334A9.326 9.326 0 0 1 24 14.667 9.326 9.326 0 0 1 14.667 24Z" fill="url(#a)"/><defs><linearGradient id="a" x1="14.734" y1="0" x2="14.734" y2="29.333" gradientUnits="userSpaceOnUse"><stop stop-color="#FFBF00"/><stop offset="1" stop-color="#F2A60C"/></linearGradient></defs></svg>