<svg width="22" height="28" fill="none" xmlns="http://www.w3.org/2000/svg"><path d="M18.667 9.333h-1.334V6.667A6.669 6.669 0 0 0 10.667 0 6.67 6.67 0 0 0 4 6.667v2.666H2.667A2.674 2.674 0 0 0 0 12v13.333C0 26.8 1.2 28 2.667 28h16c1.466 0 2.666-1.2 2.666-2.667V12c0-1.467-1.2-2.667-2.666-2.667Zm-8 12A2.674 2.674 0 0 1 8 18.667C8 17.2 9.2 16 10.667 16c1.466 0 2.666 1.2 2.666 2.667 0 1.466-1.2 2.666-2.666 2.666Zm-4-12V6.667c0-2.214 1.786-4 4-4 2.213 0 4 1.786 4 4v2.666h-8Z" fill="url(#a)"/><defs><linearGradient id="a" x1="10.716" y1="0" x2="10.716" y2="28" gradientUnits="userSpaceOnUse"><stop stop-color="#FFBF00"/><stop offset="1" stop-color="#F2A60C"/></linearGradient></defs></svg>