<svg width="100" height="100" fill="none" xmlns="http://www.w3.org/2000/svg"><path fill="#fff" d="M0 0h100v100H0z"/><path d="M57.667 45.333h-1.334v-2.666A6.67 6.67 0 0 0 49.667 36 6.67 6.67 0 0 0 43 42.667v2.666h-1.333A2.675 2.675 0 0 0 39 48v13.333C39 62.8 40.2 64 41.667 64h16c1.466 0 2.666-1.2 2.666-2.667V48c0-1.467-1.2-2.667-2.666-2.667Zm-8 12A2.674 2.674 0 0 1 47 54.667C47 53.2 48.2 52 49.667 52c1.466 0 2.666 1.2 2.666 2.667 0 1.466-1.2 2.666-2.666 2.666Zm-4-12v-2.666c0-2.214 1.786-4 4-4 2.213 0 4 1.786 4 4v2.666h-8Z" fill="url(#a)"/><defs><linearGradient id="a" x1="49.716" y1="36" x2="49.716" y2="64" gradientUnits="userSpaceOnUse"><stop stop-color="#FFBF00"/><stop offset="1" stop-color="#F2A60C"/></linearGradient></defs></svg>