<svg width="20" height="27" fill="none" xmlns="http://www.w3.org/2000/svg"><path d="M17.5 8.75h-1.25v-2.5C16.25 2.8 13.45 0 10 0S3.75 2.8 3.75 6.25v2.5H2.5a2.507 2.507 0 0 0-2.5 2.5v12.5c0 1.375 1.125 2.5 2.5 2.5h15c1.375 0 2.5-1.125 2.5-2.5v-12.5c0-1.375-1.125-2.5-2.5-2.5ZM10 20a2.507 2.507 0 0 1-2.5-2.5c0-1.375 1.125-2.5 2.5-2.5s2.5 1.125 2.5 2.5S11.375 20 10 20ZM6.25 8.75v-2.5A3.745 3.745 0 0 1 10 2.5a3.745 3.745 0 0 1 3.75 3.75v2.5h-7.5Z" fill="url(#a)"/><defs><linearGradient id="a" x1="10.046" y1="0" x2="10.046" y2="26.25" gradientUnits="userSpaceOnUse"><stop stop-color="#FFBF00"/><stop offset="1" stop-color="#F2A60C"/></linearGradient></defs></svg>