<svg width="38" height="38" fill="none" xmlns="http://www.w3.org/2000/svg"><path fill="#fff" d="M0 0h38v38H0z"/><path d="m25.503 22.209-2.117-.242a1.657 1.657 0 0 0-1.366.475l-1.534 1.533a12.538 12.538 0 0 1-5.491-5.491l1.541-1.542c.359-.358.534-.858.475-1.367l-.241-2.1A1.668 1.668 0 0 0 15.111 12H13.67c-.942 0-1.725.784-1.667 1.725.442 7.117 6.133 12.8 13.242 13.242.941.058 1.725-.725 1.725-1.667v-1.441a1.652 1.652 0 0 0-1.467-1.65Z" fill="url(#a)"/><defs><linearGradient id="a" x1="19.52" y1="12" x2="19.52" y2="26.97" gradientUnits="userSpaceOnUse"><stop stop-color="#FFBF00"/><stop offset="1" stop-color="#F2A60C"/></linearGradient></defs></svg>