<svg width="38" height="38" fill="none" xmlns="http://www.w3.org/2000/svg"><path fill="#fff" d="M0 0h38v38H0z"/><path d="M18.667 11C15.167 11 12 13.683 12 17.833c0 2.65 2.042 5.767 6.117 9.358a.848.848 0 0 0 1.108 0c4.067-3.591 6.109-6.708 6.109-9.358 0-4.15-3.167-6.833-6.667-6.833Zm0 8.333c-.917 0-1.667-.75-1.667-1.667s.75-1.667 1.667-1.667 1.667.75 1.667 1.667-.75 1.667-1.667 1.667Z" fill="url(#a)"/><defs><linearGradient id="a" x1="18.698" y1="11" x2="18.698" y2="27.397" gradientUnits="userSpaceOnUse"><stop stop-color="#FFBF00"/><stop offset="1" stop-color="#F2A60C"/></linearGradient></defs></svg>