<svg width="27" height="22" fill="none" xmlns="http://www.w3.org/2000/svg"><path d="M23.281 8.026a1.334 1.334 0 0 0-.093 1.333c.33.772.564 1.583.693 2.413a10.667 10.667 0 0 1-.92 6.307 1.333 1.333 0 0 1-1.186.707H4.908a1.333 1.333 0 0 1-1.187-.72A10.667 10.667 0 0 1 14.668 2.772c.968.114 1.916.366 2.813.747a1.333 1.333 0 0 0 1.334-.093 1.334 1.334 0 0 0-.227-2.347A13.333 13.333 0 0 0 1.8 20.026a2.666 2.666 0 0 0 2.294 1.333H22.56a2.667 2.667 0 0 0 2.32-1.333 13.333 13.333 0 0 0 .734-11.854 1.334 1.334 0 0 0-2.334-.146Z" fill="url(#a)"/><path d="M11.455 11.479a2.668 2.668 0 0 0 3.774 3.773l7.546-11.32-11.32 7.547Z" fill="url(#b)"/><defs><linearGradient id="a" x1="13.394" y1="0" x2="13.394" y2="21.359" gradientUnits="userSpaceOnUse"><stop stop-color="#FFBF00"/><stop offset="1" stop-color="#F2A60C"/></linearGradient><linearGradient id="b" x1="16.753" y1="3.932" x2="16.753" y2="16.034" gradientUnits="userSpaceOnUse"><stop stop-color="#FFBF00"/><stop offset="1" stop-color="#F2A60C"/></linearGradient></defs></svg>