<svg width="100" height="100" fill="none" xmlns="http://www.w3.org/2000/svg"><path fill="#fff" d="M0 0h100v100H0z"/><path d="M60.281 47.026a1.334 1.334 0 0 0-.093 1.333c.33.772.564 1.583.693 2.413a10.667 10.667 0 0 1-.92 6.307 1.333 1.333 0 0 1-1.186.707H41.908a1.333 1.333 0 0 1-1.187-.72 10.666 10.666 0 0 1 10.947-15.294c.968.114 1.916.366 2.813.747a1.334 1.334 0 0 0 1.334-.093 1.334 1.334 0 0 0-.227-2.347A13.333 13.333 0 0 0 38.8 59.026a2.666 2.666 0 0 0 2.294 1.333H59.56a2.667 2.667 0 0 0 2.32-1.333 13.333 13.333 0 0 0 .734-11.854 1.334 1.334 0 0 0-2.334-.146Z" fill="url(#a)"/><path d="M48.455 50.479a2.668 2.668 0 0 0 3.774 3.773l7.546-11.32-11.32 7.547Z" fill="url(#b)"/><defs><linearGradient id="a" x1="50.394" y1="39" x2="50.394" y2="60.359" gradientUnits="userSpaceOnUse"><stop stop-color="#FFBF00"/><stop offset="1" stop-color="#F2A60C"/></linearGradient><linearGradient id="b" x1="53.752" y1="42.932" x2="53.752" y2="55.034" gradientUnits="userSpaceOnUse"><stop stop-color="#FFBF00"/><stop offset="1" stop-color="#F2A60C"/></linearGradient></defs></svg>