<svg width="16" height="16" fill="none" xmlns="http://www.w3.org/2000/svg"><path d="M.728 3.636a.73.73 0 0 0 .726-.727v-.727a.731.731 0 0 1 .728-.728h.727a.73.73 0 0 0 .727-.726A.73.73 0 0 0 2.909 0h-.727A2.178 2.178 0 0 0 0 2.182v.727c0 .4.327.727.728.727Zm2.181 10.909h-.727a.73.73 0 0 1-.728-.727v-.727c0-.4-.327-.727-.726-.727a.73.73 0 0 0-.728.727v.727C0 15.026.974 16 2.182 16h.727a.73.73 0 0 0 .727-.728c0-.4-.327-.726-.727-.726v-.001ZM13.82 0h-.727a.73.73 0 0 0-.728.728c0 .399.327.726.728.726h.726c.4 0 .728.327.728.728v.727c0 .4.327.727.728.727A.73.73 0 0 0 16 2.909v-.727A2.178 2.178 0 0 0 13.818 0Zm1.454 12.363a.73.73 0 0 0-.727.728v.727a.73.73 0 0 1-.728.728h-.726a.73.73 0 0 0-.728.726c0 .4.327.728.728.728h.726A2.178 2.178 0 0 0 16 13.818v-.727c0-.4-.327-.727-.726-.727v-.001Zm-2.184-2.276V5.913c0-.524-.276-1.004-.726-1.258L8.726 2.56a1.437 1.437 0 0 0-1.454 0L3.636 4.646a1.458 1.458 0 0 0-.728 1.266v4.174c0 .524.276 1.004.728 1.258l3.636 2.095a1.436 1.436 0 0 0 1.454 0l3.638-2.094a1.44 1.44 0 0 0 .727-1.258h-.002ZM7.272 11.76l-2.91-1.673V6.72l2.91 1.694v3.346Zm.727-4.604-2.88-1.68L8 3.818l2.88 1.658L8 7.156Zm3.636 2.931L8.726 11.76V8.414l2.91-1.694v3.367Z" fill="#9C9C9C"/></svg>