<svg width="100" height="100" fill="none" xmlns="http://www.w3.org/2000/svg"><path fill="#fff" d="M0 0h100v100H0z"/><path d="M42.728 45.636c.399 0 .726-.327.726-.727v-.727a.731.731 0 0 1 .728-.728h.727c.4 0 .727-.327.727-.726a.73.73 0 0 0-.727-.728h-.727A2.178 2.178 0 0 0 42 44.182v.727c0 .4.327.727.728.727Zm2.181 10.909h-.727a.73.73 0 0 1-.728-.727v-.727c0-.4-.327-.727-.726-.727a.73.73 0 0 0-.728.727v.727c0 1.208.974 2.182 2.182 2.182h.727a.728.728 0 0 0 0-1.454v-.001ZM55.82 42h-.727a.73.73 0 0 0-.728.728c0 .399.327.726.728.726h.726c.4 0 .728.327.728.728v.727c0 .4.327.727.727.727a.73.73 0 0 0 .727-.727v-.727A2.178 2.178 0 0 0 55.818 42Zm1.454 12.363a.73.73 0 0 0-.727.728v.727a.73.73 0 0 1-.728.728h-.726a.73.73 0 0 0-.728.726c0 .4.327.728.728.728h.726A2.178 2.178 0 0 0 58 55.818v-.727c0-.4-.327-.727-.727-.727v-.001Zm-2.184-2.276v-4.174c0-.524-.276-1.004-.726-1.258l-3.637-2.095a1.437 1.437 0 0 0-1.454 0l-3.636 2.086a1.458 1.458 0 0 0-.728 1.265v4.175c0 .524.276 1.004.728 1.258l3.636 2.095a1.437 1.437 0 0 0 1.454 0l3.638-2.094a1.44 1.44 0 0 0 .727-1.258h-.002Zm-5.817 1.673-2.91-1.673V48.72l2.91 1.694v3.346Zm.727-4.604-2.88-1.68L50 45.818l2.88 1.658-2.88 1.68Zm3.636 2.931-2.909 1.673v-3.346l2.91-1.694v3.367Z" fill="#9C9C9C"/></svg>