<svg width="32" height="32" viewBox="0 0 32 32" fill="none" xmlns="http://www.w3.org/2000/svg">
<path d="M32 16C32 24.8366 24.8366 32 16 32C7.16344 32 0 24.8366 0 16C0 7.16344 7.16344 0 16 0C24.8366 0 32 7.16344 32 16Z" fill="white"/>
<path d="M23.5833 13.75H22.695L20.8533 8.485C20.7009 8.05087 20.4239 7.67573 20.0597 7.41019C19.6955 7.14465 19.2617 7.00149 18.8167 7H17.0833C16.4875 7 16 7.50625 16 8.125C16 8.74375 16.4875 9.25 17.0833 9.25H18.8167L20.3983 13.75H15.1875L14.7975 12.625H14.895C15.4908 12.625 15.9783 12.1188 15.9783 11.5C15.9783 10.8812 15.4908 10.375 14.895 10.375H11.6667C11.0708 10.375 10.5833 10.8812 10.5833 11.5C10.5833 12.1188 11.0708 12.625 11.6667 12.625H12.4792L14.4508 18.25H13.725C13.2483 15.7413 11.2225 13.885 8.6875 13.7613C5.65417 13.6038 3 16.225 3 19.375C3 22.525 5.38333 25 8.41667 25C11.0817 25 13.2375 23.0987 13.725 20.5H18.275C18.7517 23.0088 20.7775 24.865 23.3125 24.9888C26.3458 25.135 29 22.525 29 19.3638C29 16.225 26.6167 13.75 23.5833 13.75ZM9.5 20.5H11.4717C11.0167 21.8837 9.73833 22.84 8.2 22.7388C6.58583 22.6375 5.2425 21.22 5.16667 19.5325C5.09083 17.5638 6.5425 16 8.41667 16C9.8575 16 11.0383 16.9338 11.4717 18.25H9.5C8.90417 18.25 8.41667 18.7563 8.41667 19.375C8.41667 19.9937 8.90417 20.5 9.5 20.5ZM18.275 18.25H16.7583L15.9675 16H19.25C18.7733 16.6525 18.4267 17.4062 18.275 18.25ZM23.4533 22.75C21.785 22.6825 20.3767 21.2087 20.3333 19.465C20.3117 18.385 20.7558 17.44 21.4708 16.81L22.1425 18.7225C22.3483 19.3075 22.9658 19.6113 23.5292 19.3975C24.0925 19.1838 24.385 18.5425 24.1792 17.9575L23.4967 16.0112L23.5075 16C23.9418 15.9846 24.3747 16.0608 24.7799 16.224C25.1851 16.3871 25.5543 16.6339 25.8651 16.9493C26.1759 17.2647 26.422 17.6423 26.5884 18.0592C26.7548 18.4761 26.8381 18.9237 26.8333 19.375C26.8333 21.31 25.3383 22.8175 23.4533 22.75Z" fill="url(#paint0_linear_116_175)"/>
<defs>
<linearGradient id="paint0_linear_116_175" x1="16.0599" y1="7" x2="16.0599" y2="25" gradientUnits="userSpaceOnUse">
<stop stop-color="#FFB60D"/>
<stop offset="1" stop-color="#E59317"/>
</linearGradient>
</defs>
</svg>
