<svg width="72" height="66" fill="none" xmlns="http://www.w3.org/2000/svg"><path fill="#fff" d="M0 0h72v66H0z"/><path d="M52 33c0-8.836-7.164-16-16-16s-16 7.164-16 16c0 7.987 5.85 14.605 13.5 15.805v-11.18h-4.063V33H33.5v-3.523c0-4.01 2.39-6.225 6.044-6.225 1.75 0 3.581.313 3.581.313v3.937h-2.018c-1.988 0-2.608 1.234-2.608 2.499v3h4.437l-.71 4.627H38.5v11.18C46.149 47.605 52 40.985 52 33Z" fill="url(#a)"/><defs><linearGradient id="a" x1="36.074" y1="17" x2="36.074" y2="48.807" gradientUnits="userSpaceOnUse"><stop stop-color="#FFBF00"/><stop offset="1" stop-color="#F2A60C"/></linearGradient></defs></svg>