<svg xmlns="http://www.w3.org/2000/svg" width="29" height="29" fill="none"><path fill="#fff" fill-rule="evenodd" d="M0 8.007C0 3.592 3.592 0 8.007 0h12.986C25.408 0 29 3.592 29 8.007v12.986C29 25.408 25.408 29 20.993 29H8.007C3.592 29 0 25.408 0 20.993V8.007ZM8.742 14.5a5.764 5.764 0 0 0 5.758 5.758 5.764 5.764 0 0 0 5.758-5.758A5.764 5.764 0 0 0 14.5 8.742 5.764 5.764 0 0 0 8.742 14.5Zm-1.866 0c0-4.204 3.42-7.624 7.624-7.624s7.624 3.42 7.624 7.624-3.42 7.624-7.624 7.624-7.624-3.42-7.624-7.624ZM23.787 3.075a2.001 2.001 0 1 1 0 4.002 2.001 2.001 0 0 1 0-4.002Z" clip-rule="evenodd"/></svg>