<svg xmlns="http://www.w3.org/2000/svg" width="32" height="32" fill="none"><path fill="url(#a)" fill-rule="evenodd" d="M0 8.835C0 3.963 3.963 0 8.835 0h14.33C28.037 0 32 3.963 32 8.835v14.33C32 28.037 28.037 32 23.165 32H8.835C3.963 32 0 28.037 0 23.165V8.835ZM9.647 16A6.36 6.36 0 0 0 16 22.353 6.36 6.36 0 0 0 22.353 16 6.36 6.36 0 0 0 16 9.647 6.36 6.36 0 0 0 9.647 16Zm-2.06 0c0-4.639 3.774-8.413 8.413-8.413s8.413 3.774 8.413 8.413-3.774 8.413-8.413 8.413S7.587 20.639 7.587 16Zm18.66-12.607a2.208 2.208 0 1 1 0 4.417 2.208 2.208 0 0 1 0-4.417Z" clip-rule="evenodd"/><defs><linearGradient id="a" x1="16.074" x2="16.074" y1="0" y2="32" gradientUnits="userSpaceOnUse"><stop stop-color="#FFBF00"/><stop offset="1" stop-color="#F2A60C"/></linearGradient></defs></svg>