<svg width="72" height="66" fill="none" xmlns="http://www.w3.org/2000/svg"><path fill="#fff" d="M0 0h72v66H0z"/><path fill-rule="evenodd" clip-rule="evenodd" d="M20 25.835C20 20.963 23.963 17 28.835 17h14.33C48.037 17 52 20.963 52 25.835v14.33C52 45.037 48.037 49 43.165 49h-14.33C23.963 49 20 45.037 20 40.165v-14.33ZM29.647 33A6.36 6.36 0 0 0 36 39.353 6.36 6.36 0 0 0 42.353 33 6.36 6.36 0 0 0 36 26.647 6.36 6.36 0 0 0 29.647 33Zm-2.06 0c0-4.639 3.774-8.413 8.413-8.413s8.413 3.774 8.413 8.413-3.774 8.413-8.413 8.413-8.413-3.774-8.413-8.413Zm18.66-12.607a2.208 2.208 0 1 1 0 4.417 2.208 2.208 0 0 1 0-4.416Z" fill="url(#a)"/><defs><linearGradient id="a" x1="36.074" y1="17" x2="36.074" y2="49" gradientUnits="userSpaceOnUse"><stop stop-color="#FFBF00"/><stop offset="1" stop-color="#F2A60C"/></linearGradient></defs></svg>