<svg width="80" height="61" fill="none" xmlns="http://www.w3.org/2000/svg"><path fill="#fff" d="M0 0h80v61H0z"/><path fill-rule="evenodd" clip-rule="evenodd" d="M11 16.007C11 11.592 14.592 8 19.007 8h12.986C36.408 8 40 11.592 40 16.007v12.986C40 33.408 36.408 37 31.993 37H19.007C14.592 37 11 33.408 11 28.993V16.007Zm8.742 6.493a5.764 5.764 0 0 0 5.758 5.758 5.764 5.764 0 0 0 5.758-5.758 5.764 5.764 0 0 0-5.758-5.758 5.764 5.764 0 0 0-5.758 5.758Zm-1.866 0c0-4.204 3.42-7.624 7.624-7.624s7.624 3.42 7.624 7.624-3.42 7.624-7.624 7.624-7.624-3.42-7.624-7.624Zm16.911-11.425a2.001 2.001 0 1 1 0 4.002 2.001 2.001 0 0 1 0-4.002Z" fill="#fff"/></svg>