<svg xmlns="http://www.w3.org/2000/svg" width="32" height="22" fill="none"><path fill="#fff" d="M31.33 3.436a3.902 3.902 0 0 0-1.033-1.759A4.044 4.044 0 0 0 28.5.657C26.007 0 16 0 16 0S5.993 0 3.497.657a4.046 4.046 0 0 0-1.794 1.02A3.903 3.903 0 0 0 .669 3.437C0 5.887 0 11 0 11s0 5.113.67 7.564c.18.665.537 1.271 1.033 1.759.497.487 1.116.84 1.796 1.02C5.993 22 16 22 16 22s10.007 0 12.503-.657a4.043 4.043 0 0 0 1.795-1.02 3.901 3.901 0 0 0 1.034-1.759C32 16.113 32 11 32 11s0-5.113-.67-7.564ZM12.728 15.642V6.358L21.09 11l-8.364 4.642Z"/></svg>