<svg xmlns="http://www.w3.org/2000/svg" width="32" height="23" fill="none"><path fill="url(#a)" d="M31.33 3.521A4.021 4.021 0 0 0 28.502.673C26.007 0 16 0 16 0S5.993 0 3.497.673A4.023 4.023 0 0 0 .67 3.521C0 6.033 0 11.273 0 11.273s0 5.24.67 7.752a4.02 4.02 0 0 0 2.829 2.848c2.494.674 12.501.674 12.501.674s10.007 0 12.503-.674a4.02 4.02 0 0 0 2.829-2.848C32 16.513 32 11.273 32 11.273s0-5.24-.67-7.752Zm-18.603 12.51V6.516l8.364 4.757-8.364 4.758Z"/><defs><linearGradient id="a" x1="16.074" x2="16.074" y1="0" y2="22.547" gradientUnits="userSpaceOnUse"><stop stop-color="#FFBF00"/><stop offset="1" stop-color="#F2A60C"/></linearGradient></defs></svg>