<svg width="72" height="66" fill="none" xmlns="http://www.w3.org/2000/svg"><path fill="#fff" d="M0 0h72v66H0z"/><path d="M51.33 25.521a4.021 4.021 0 0 0-2.829-2.848C46.007 22 36 22 36 22s-10.007 0-12.503.673a4.023 4.023 0 0 0-2.828 2.848C20 28.033 20 33.273 20 33.273s0 5.24.67 7.752a4.02 4.02 0 0 0 2.829 2.848c2.494.674 12.501.674 12.501.674s10.007 0 12.503-.674a4.02 4.02 0 0 0 2.829-2.848C52 38.513 52 33.273 52 33.273s0-5.24-.67-7.752Zm-18.603 12.51v-9.515l8.364 4.757-8.364 4.758Z" fill="url(#a)"/><defs><linearGradient id="a" x1="36.074" y1="22" x2="36.074" y2="44.547" gradientUnits="userSpaceOnUse"><stop stop-color="#FFBF00"/><stop offset="1" stop-color="#F2A60C"/></linearGradient></defs></svg>