<svg width="80" height="61" fill="none" xmlns="http://www.w3.org/2000/svg"><path fill="#fff" d="M0 0h80v61H0z"/><path d="M39.33 11.033a3.384 3.384 0 0 0-1.033-1.553 4.206 4.206 0 0 0-1.796-.9C34.007 8 24 8 24 8s-10.007 0-12.503.58c-.68.16-1.298.47-1.794.9-.497.431-.853.966-1.034 1.553C8 13.196 8 17.709 8 17.709s0 4.513.67 6.676c.18.587.537 1.122 1.033 1.552.497.43 1.116.741 1.796.9 2.494.58 12.501.58 12.501.58s10.007 0 12.503-.58c.68-.159 1.299-.47 1.795-.9.497-.43.853-.965 1.034-1.552C40 22.222 40 17.71 40 17.71s0-4.513-.67-6.676ZM20.728 21.806v-8.194l8.364 4.097-8.364 4.097Z" fill="#fff"/></svg>