<svg width="194" height="50" fill="none" xmlns="http://www.w3.org/2000/svg"><path d="M13.661 18.926c.728-1.109 1.725-2.01 2.992-2.702 1.294-.693 2.764-1.039 4.408-1.039 1.914 0 3.64.485 5.176 1.455 1.563.97 2.79 2.355 3.68 4.156.916 1.773 1.374 3.838 1.374 6.193 0 2.355-.458 4.447-1.375 6.275-.89 1.801-2.116 3.2-3.68 4.198-1.536.998-3.261 1.496-5.175 1.496-1.671 0-3.14-.332-4.408-.997-1.24-.693-2.237-1.58-2.992-2.66v3.283H8V7.83h5.661v11.097Zm11.848 8.063c0-1.386-.283-2.577-.85-3.575-.538-1.025-1.266-1.8-2.183-2.327a5.613 5.613 0 0 0-2.911-.79c-1.025 0-1.995.277-2.912.831-.89.527-1.617 1.303-2.183 2.328-.54 1.025-.809 2.23-.809 3.616 0 1.385.27 2.59.809 3.616.566 1.025 1.294 1.814 2.183 2.369.917.526 1.887.79 2.912.79a5.401 5.401 0 0 0 2.911-.832c.917-.554 1.645-1.344 2.184-2.369.566-1.025.849-2.244.849-3.657Zm12.767-14.173c-.998 0-1.834-.319-2.507-.956-.647-.665-.97-1.482-.97-2.452s.323-1.773.97-2.41c.674-.666 1.51-.998 2.507-.998.997 0 1.82.332 2.466.997.674.638 1.011 1.441 1.011 2.411s-.337 1.787-1.01 2.452c-.648.638-1.47.956-2.467.956Zm2.79 2.743v23.025h-5.661V15.56h5.66Zm18.857 23.025-7.602-9.808v9.808H46.66V7.83h5.66v17.497l7.522-9.767h7.36l-9.867 11.554 9.947 11.471h-7.36Zm7.771-11.512c0-2.383.472-4.461 1.415-6.235.944-1.8 2.252-3.186 3.923-4.156 1.671-.997 3.585-1.496 5.742-1.496 2.776 0 5.068.72 6.874 2.161 1.833 1.413 3.06 3.408 3.68 5.985h-6.105c-.323-.997-.876-1.773-1.658-2.327-.755-.582-1.698-.873-2.83-.873-1.618 0-2.898.61-3.842 1.829-.944 1.191-1.415 2.895-1.415 5.112 0 2.189.472 3.893 1.415 5.112.944 1.191 2.224 1.787 3.841 1.787 2.292 0 3.788-1.053 4.489-3.159h6.106c-.62 2.494-1.847 4.475-3.68 5.944-1.833 1.468-4.124 2.202-6.874 2.202-2.157 0-4.07-.484-5.742-1.454a10.45 10.45 0 0 1-3.922-4.156c-.944-1.801-1.417-3.893-1.417-6.276Zm30.32-7.938a8.124 8.124 0 0 1 2.83-2.868c1.186-.693 2.534-1.04 4.044-1.04v6.11h-1.496c-1.779 0-3.127.43-4.044 1.289-.89.859-1.334 2.355-1.334 4.488v11.471h-5.661V15.56h5.66v3.575ZM122.246 35.3c-.62 1.053-1.631 1.94-3.032 2.66A10.086 10.086 0 0 1 114.685 39c-1.402 0-2.669-.29-3.801-.873-1.133-.582-2.022-1.385-2.669-2.41-.647-1.026-.971-2.203-.971-3.533 0-2.134.769-3.88 2.305-5.237 1.564-1.358 3.896-2.036 6.996-2.036h5.701c-.054-1.469-.471-2.633-1.253-3.492-.755-.886-1.806-1.33-3.154-1.33-1.186 0-2.17.333-2.952.998-.782.637-1.281 1.538-1.496 2.701h-5.661c.269-1.662.849-3.144 1.738-4.447a9.22 9.22 0 0 1 3.559-3.075c1.483-.748 3.14-1.122 4.974-1.122 1.887 0 3.585.401 5.095 1.205a8.748 8.748 0 0 1 3.598 3.45c.863 1.496 1.294 3.255 1.294 5.278v13.507h-5.742v-3.283Zm-5.903-.998c.943 0 1.86-.207 2.749-.623a5.558 5.558 0 0 0 2.265-1.87c.593-.831.889-1.815.889-2.951v-.166h-5.378c-1.294 0-2.264.263-2.911.79-.62.526-.93 1.218-.93 2.078 0 .83.283 1.496.849 1.994.593.5 1.415.748 2.467.748Zm23.584-13.964v18.245h-5.742V20.34h-2.547v-4.78h2.547v-1.163c0-2.827.782-4.905 2.346-6.235 1.563-1.33 3.922-1.953 7.076-1.87v4.904c-1.375-.027-2.332.208-2.871.707-.539.498-.809 1.399-.809 2.701v.956h7.357V9.865h5.702v5.694H158v4.78h-5.014v11.138c0 .776.175 1.344.526 1.704.377.333.997.5 1.86.5H158v4.903h-3.558c-4.772 0-7.158-2.383-7.158-7.148V20.339h-7.357Z" fill="#fff"/></svg>